<svg width="45" height="45" viewBox="0 0 45 45" fill="none" xmlns="http://www.w3.org/2000/svg">
<path d="M22.5 22.5C23.5312 22.5 24.4141 22.1328 25.1484 21.3984C25.8828 20.6641 26.25 19.7812 26.25 18.75C26.25 17.7188 25.8828 16.8359 25.1484 16.1016C24.4141 15.3672 23.5312 15 22.5 15C21.4688 15 20.5859 15.3672 19.8516 16.1016C19.1172 16.8359 18.75 17.7188 18.75 18.75C18.75 19.7812 19.1172 20.6641 19.8516 21.3984C20.5859 22.1328 21.4688 22.5 22.5 22.5ZM22.5 36.2812C26.3125 32.7812 29.1406 29.6016 30.9844 26.7422C32.8281 23.8828 33.75 21.3438 33.75 19.125C33.75 15.7188 32.6641 12.9297 30.4922 10.7578C28.3203 8.58594 25.6562 7.5 22.5 7.5C19.3438 7.5 16.6797 8.58594 14.5078 10.7578C12.3359 12.9297 11.25 15.7188 11.25 19.125C11.25 21.3438 12.1719 23.8828 14.0156 26.7422C15.8594 29.6016 18.6875 32.7812 22.5 36.2812ZM22.5 41.25C17.4688 36.9688 13.7109 32.9922 11.2266 29.3203C8.74219 25.6484 7.5 22.25 7.5 19.125C7.5 14.4375 9.00781 10.7031 12.0234 7.92188C15.0391 5.14063 18.5312 3.75 22.5 3.75C26.4688 3.75 29.9609 5.14063 32.9766 7.92188C35.9922 10.7031 37.5 14.4375 37.5 19.125C37.5 22.25 36.2578 25.6484 33.7734 29.3203C31.2891 32.9922 27.5312 36.9688 22.5 41.25Z" fill="white"/>
</svg>
