<svg width="262" height="56" viewBox="0 0 262 56" fill="none" xmlns="http://www.w3.org/2000/svg">
<path d="M33.3271 1.50064C34.1552 0.0660861 35.9898 -0.425817 37.4247 0.402003C38.8596 1.22995 39.3519 3.06464 38.5243 4.49966L35.5019 9.73599C36.6135 9.74043 37.6601 9.7444 38.62 9.74868C39.2076 9.65084 40.4125 9.89507 40.5302 11.6559C40.6477 13.4171 40.5791 15.2278 40.5302 15.9127H38.62V19.4352C39.7463 19.6309 41.9999 20.463 41.9999 22.2243V51.2838C41.7551 52.458 40.5598 54.8363 37.7392 54.9538C34.9185 55.0712 14.7226 55.0027 4.97744 54.9538C3.45928 54.6601 0.364845 53.3683 0.129786 50.5504C-0.105268 47.7325 0.0318453 30.4925 0.129786 22.2243C0.472573 21.5883 1.71621 20.1397 3.94912 19.4352V15.9127H1.746V11.6559C1.89313 11.0687 2.53934 9.86619 3.94912 9.74868C5.00097 9.66111 17.6677 9.67659 28.5897 9.7106L33.3271 1.50064Z" fill="#A46E00"/>
<path d="M12.4462 47.2268C10.8828 47.2268 9.77451 46.7834 9.12117 45.8968C8.49117 44.9868 8.17617 43.6218 8.17617 41.8018C8.17617 40.6351 8.36284 38.8851 8.73617 36.5518C9.13284 34.1951 9.68117 31.0801 10.3812 27.2068L8.52617 23.4618C9.62284 22.7618 10.7895 22.1668 12.0262 21.6768C13.2628 21.1634 14.4995 20.9068 15.7362 20.9068C16.8328 20.9068 17.5562 21.2334 17.9062 21.8868C18.2562 22.5401 18.4312 23.3101 18.4312 24.1968C18.4312 24.5934 18.3495 25.2468 18.1862 26.1568C18.0462 27.0434 17.8595 28.0701 17.6262 29.2368C17.4162 30.4034 17.1945 31.5934 16.9612 32.8068H24.8012C24.9412 31.9901 25.0928 31.1151 25.2562 30.1818C25.4428 29.2484 25.6295 28.2568 25.8162 27.2068L23.9612 23.4618C25.0578 22.7618 26.2245 22.1668 27.4612 21.6768C28.6978 21.1634 29.9345 20.9068 31.1712 20.9068C32.2678 20.9068 32.9912 21.2334 33.3412 21.8868C33.6912 22.5401 33.8662 23.3101 33.8662 24.1968C33.8662 24.5701 33.7962 25.1768 33.6562 26.0168C33.5395 26.8334 33.3762 27.7901 33.1662 28.8868C32.9562 29.9601 32.7345 31.0918 32.5012 32.2818C32.2912 33.4484 32.0812 34.5918 31.8712 35.7118C31.6612 36.8084 31.4862 37.7884 31.3462 38.6518C31.2295 39.4918 31.1712 40.1334 31.1712 40.5768C31.1712 41.7668 31.2528 42.7701 31.4162 43.5868C31.6028 44.4034 31.8712 45.0918 32.2212 45.6518C30.8212 46.7018 29.3745 47.2268 27.8812 47.2268C26.3178 47.2268 25.2095 46.7834 24.5562 45.8968C23.9262 44.9868 23.6112 43.6218 23.6112 41.8018C23.6112 41.2651 23.6462 40.6001 23.7162 39.8068C23.8095 38.9901 23.9378 38.0451 24.1012 36.9718H16.1912C16.0512 37.7651 15.9345 38.4884 15.8412 39.1418C15.7712 39.7718 15.7362 40.2501 15.7362 40.5768C15.7362 41.7668 15.8178 42.7701 15.9812 43.5868C16.1678 44.4034 16.4362 45.0918 16.7862 45.6518C15.3862 46.7018 13.9395 47.2268 12.4462 47.2268Z" fill="white"/>
<path d="M44.84 47.0668C43.08 47.0668 41.56 46.7368 40.28 46.0768C39.02 45.3968 38.05 44.4668 37.37 43.2868C36.69 42.1068 36.35 40.7368 36.35 39.1768C36.35 37.0168 36.82 35.1268 37.76 33.5068C38.72 31.8668 40.03 30.5968 41.69 29.6968C43.35 28.7768 45.24 28.3168 47.36 28.3168C47.7 28.3168 48.04 28.3368 48.38 28.3768C48.74 28.3968 49.12 28.4568 49.52 28.5568C49.62 28.8368 49.7 29.1768 49.76 29.5768C49.82 29.9568 49.86 30.3668 49.88 30.8068C50.06 30.7468 50.25 30.6968 50.45 30.6568C50.67 30.6168 50.9 30.5968 51.14 30.5968C51.84 30.5968 52.5 30.7868 53.12 31.1668C53.74 31.5268 54.25 32.0968 54.65 32.8768C55.05 33.6568 55.25 34.6468 55.25 35.8468C55.25 37.6268 54.95 39.2168 54.35 40.6168C53.77 41.9968 52.98 43.1668 51.98 44.1268C50.98 45.0868 49.86 45.8168 48.62 46.3168C47.4 46.8168 46.14 47.0668 44.84 47.0668ZM45.77 43.3768C46.23 43.3768 46.71 43.2668 47.21 43.0468C47.71 42.8268 48.2 42.4268 48.68 41.8468C49.16 41.2668 49.56 40.4468 49.88 39.3868C49.02 38.8468 48.4 38.1868 48.02 37.4068C47.64 36.6068 47.45 35.7268 47.45 34.7668C47.45 34.4868 47.5 34.1268 47.6 33.6868C47.7 33.2468 47.87 32.7968 48.11 32.3368C48.37 31.8768 48.72 31.4968 49.16 31.1968C47.78 31.4768 46.65 31.8968 45.77 32.4568C44.89 33.0168 44.2 33.6668 43.7 34.4068C43.22 35.1268 42.88 35.8768 42.68 36.6568C42.5 37.4168 42.41 38.1468 42.41 38.8468C42.41 39.6468 42.54 40.3968 42.8 41.0968C43.06 41.7768 43.44 42.3268 43.94 42.7468C44.44 43.1668 45.05 43.3768 45.77 43.3768ZM61.6053 47.0668C60.3453 47.0668 59.4453 46.7468 58.9053 46.1068C58.3653 45.4668 58.0953 44.5468 58.0953 43.3468C58.0953 42.9268 58.1553 42.2868 58.2753 41.4268C58.3953 40.5468 58.5453 39.5768 58.7253 38.5168C58.9253 37.4368 59.1353 36.3568 59.3553 35.2768C59.5753 34.1968 59.7853 33.2368 59.9853 32.3968L58.4253 29.9968C59.2453 29.5368 60.1253 29.1468 61.0653 28.8268C62.0253 28.4868 62.9953 28.3168 63.9753 28.3168C64.8153 28.3168 65.4353 28.5268 65.8353 28.9468C66.2353 29.3468 66.4353 29.8968 66.4353 30.5968C66.4353 31.1168 66.3653 31.6568 66.2253 32.2168C66.0853 32.7768 65.9253 33.2568 65.7453 33.6568L66.0453 33.8068C67.2253 31.7868 68.5153 30.3668 69.9153 29.5468C71.3153 28.7268 72.7453 28.3168 74.2053 28.3168C75.4253 28.3168 76.3353 28.6168 76.9353 29.2168C77.5353 29.7968 77.8353 30.7068 77.8353 31.9468C77.8353 33.0268 77.6853 34.1768 77.3853 35.3968C77.1053 36.5968 76.8153 37.8368 76.5153 39.1168C76.2153 40.3768 76.0653 41.6268 76.0653 42.8668C76.0653 44.1068 76.2753 45.0168 76.6953 45.5968C75.6353 46.5768 74.5353 47.0668 73.3953 47.0668C72.1353 47.0668 71.2353 46.7468 70.6953 46.1068C70.1553 45.4668 69.8853 44.5468 69.8853 43.3468C69.8853 42.6868 69.9753 41.9568 70.1553 41.1568C70.3353 40.3368 70.5453 39.5068 70.7853 38.6668C71.0253 37.8268 71.2353 37.0368 71.4153 36.2968C71.5953 35.5568 71.6853 34.9168 71.6853 34.3768C71.6853 33.9568 71.6053 33.6268 71.4453 33.3868C71.3053 33.1468 71.0453 33.0268 70.6653 33.0268C70.1253 33.0268 69.4953 33.2668 68.7753 33.7468C68.0553 34.2268 67.3453 34.9068 66.6453 35.7868C65.9653 36.6468 65.3953 37.6768 64.9353 38.8768C64.4953 40.0768 64.2753 41.4068 64.2753 42.8668C64.2753 44.1068 64.4853 45.0168 64.9053 45.5968C63.8453 46.5768 62.7453 47.0668 61.6053 47.0668ZM89.1097 47.0668C87.2497 47.0668 85.6797 46.7368 84.3997 46.0768C83.1197 45.4168 82.1497 44.4968 81.4897 43.3168C80.8497 42.1168 80.5297 40.7368 80.5297 39.1768C80.5297 37.5568 80.8197 36.0868 81.3997 34.7668C81.9997 33.4268 82.8297 32.2768 83.8897 31.3168C84.9497 30.3568 86.1797 29.6168 87.5797 29.0968C88.9997 28.5768 90.5297 28.3168 92.1697 28.3168C94.1097 28.3168 95.5397 28.7468 96.4597 29.6068C97.3797 30.4668 97.8397 31.5468 97.8397 32.8468C97.8397 33.9668 97.4697 35.0268 96.7297 36.0268C96.0097 37.0068 94.8397 37.8068 93.2197 38.4268C91.5997 39.0268 89.4397 39.3368 86.7397 39.3568C86.7997 40.6368 87.0897 41.6468 87.6097 42.3868C88.1497 43.1068 88.8197 43.4668 89.6197 43.4668C90.0197 43.4668 90.4397 43.3768 90.8797 43.1968C91.3197 42.9968 91.6897 42.6568 91.9897 42.1768C92.2897 41.6768 92.4397 40.9968 92.4397 40.1368C93.7997 40.1368 94.8697 40.2868 95.6497 40.5868C96.4297 40.8868 96.8197 41.4268 96.8197 42.2068C96.8197 42.9268 96.5097 43.6668 95.8897 44.4268C95.2697 45.1668 94.3797 45.7968 93.2197 46.3168C92.0797 46.8168 90.7097 47.0668 89.1097 47.0668ZM87.0097 36.9568C88.4697 36.8368 89.6397 36.5668 90.5197 36.1468C91.3997 35.7268 92.0397 35.2468 92.4397 34.7068C92.8397 34.1668 93.0397 33.6668 93.0397 33.2068C93.0397 32.8068 92.9197 32.4768 92.6797 32.2168C92.4397 31.9568 92.0997 31.8268 91.6597 31.8268C90.9397 31.8268 90.2697 32.0768 89.6497 32.5768C89.0297 33.0768 88.4897 33.7268 88.0297 34.5268C87.5897 35.3068 87.2497 36.1168 87.0097 36.9568ZM105.046 53.3668C103.666 53.3668 102.506 53.0668 101.566 52.4668C100.626 51.8668 100.156 51.0268 100.156 49.9468C100.156 49.5068 100.246 49.0368 100.426 48.5368C100.606 48.0368 100.886 47.5068 101.266 46.9468C101.726 47.6068 102.276 48.1068 102.916 48.4468C103.556 48.8068 104.206 48.9868 104.866 48.9868C105.646 48.9868 106.396 48.7268 107.116 48.2068C107.836 47.6868 108.416 46.8568 108.856 45.7168C108.356 45.8968 107.886 46.0268 107.446 46.1068C107.006 46.1868 106.586 46.2268 106.186 46.2268C105.146 46.2268 104.306 45.9568 103.666 45.4168C103.026 44.8568 102.656 44.0568 102.556 43.0168C102.416 41.6968 102.326 40.3268 102.286 38.9068C102.246 37.4868 102.166 36.1968 102.046 35.0368C101.906 33.6768 101.616 32.5468 101.176 31.6468C100.736 30.7468 100.226 30.0668 99.6465 29.6068C100.126 29.1668 100.626 28.8468 101.146 28.6468C101.686 28.4268 102.366 28.3168 103.186 28.3168C104.186 28.3168 104.996 28.6168 105.616 29.2168C106.256 29.8168 106.746 30.6668 107.086 31.7668C107.426 32.8468 107.656 34.1168 107.776 35.5768C107.916 37.0168 107.986 38.5868 107.986 40.2868C107.986 40.5268 107.976 40.8968 107.956 41.3968C107.956 41.8968 107.936 42.3968 107.896 42.8968H109.636C109.956 42.0168 110.296 41.0768 110.656 40.0768C111.016 39.0768 111.346 38.0668 111.646 37.0468C111.966 36.0068 112.226 35.0168 112.426 34.0768C112.626 33.1168 112.726 32.2668 112.726 31.5268C112.726 31.0868 112.676 30.7168 112.576 30.4168C112.496 30.1168 112.396 29.8468 112.276 29.6068C112.976 29.1668 113.666 28.8468 114.346 28.6468C115.026 28.4268 115.636 28.3168 116.176 28.3168C117.096 28.3168 117.766 28.6268 118.186 29.2468C118.626 29.8668 118.846 30.6768 118.846 31.6768C118.846 32.4168 118.736 33.2768 118.516 34.2568C118.296 35.2168 118.016 36.2168 117.676 37.2568C117.356 38.2768 117.026 39.2468 116.686 40.1668C116.366 41.0868 116.096 41.8668 115.876 42.5068C114.916 45.2668 113.836 47.4368 112.636 49.0168C111.456 50.5968 110.216 51.7168 108.916 52.3768C107.636 53.0368 106.346 53.3668 105.046 53.3668ZM138.65 47.0668C136.85 47.0668 135.37 46.9368 134.21 46.6768C133.05 46.4368 132.15 46.0968 131.51 45.6568C130.87 45.2168 130.42 44.7168 130.16 44.1568C129.92 43.5768 129.8 42.9668 129.8 42.3268C129.8 41.7268 129.89 41.1268 130.07 40.5268C130.27 39.9268 130.61 39.3068 131.09 38.6668C131.37 39.2468 131.83 39.8068 132.47 40.3468C133.11 40.8868 133.83 41.3268 134.63 41.6668C135.45 42.0068 136.25 42.1768 137.03 42.1768C138.07 42.1768 138.93 42.0168 139.61 41.6968C140.31 41.3568 140.81 40.8368 141.11 40.1368C137.71 39.6768 135.16 38.7368 133.46 37.3168C131.76 35.8768 130.91 34.1868 130.91 32.2468C130.91 31.1068 131.14 30.1068 131.6 29.2468C132.08 28.3868 132.71 27.6668 133.49 27.0868C134.27 26.4868 135.12 26.0068 136.04 25.6468C136.96 25.2668 137.87 24.9968 138.77 24.8368C139.67 24.6568 140.47 24.5668 141.17 24.5668C143.71 24.5668 145.66 24.8668 147.02 25.4668C148.4 26.0468 149.09 27.0768 149.09 28.5568C149.09 29.4168 148.89 30.1368 148.49 30.7168C148.11 31.2968 147.6 31.7368 146.96 32.0368C146.34 32.3168 145.66 32.4568 144.92 32.4568C144.04 32.4568 143.18 32.2068 142.34 31.7068C141.5 31.1868 140.91 30.4668 140.57 29.5468C139.87 29.5468 139.18 29.7868 138.5 30.2668C137.82 30.7268 137.38 31.3668 137.18 32.1868C139.84 32.8268 141.98 33.5368 143.6 34.3168C145.24 35.0968 146.43 35.9768 147.17 36.9568C147.91 37.9368 148.28 39.0568 148.28 40.3168C148.28 41.7768 147.85 43.0068 146.99 44.0068C146.13 45.0068 144.97 45.7668 143.51 46.2868C142.07 46.8068 140.45 47.0668 138.65 47.0668ZM156.394 47.0668C155.734 47.0668 155.084 46.9668 154.444 46.7668C153.824 46.5668 153.304 46.2168 152.884 45.7168C152.484 45.2168 152.284 44.5268 152.284 43.6468C152.284 43.6468 152.284 43.4168 152.284 42.9568C152.304 42.4968 152.314 41.9068 152.314 41.1868C152.334 40.4668 152.344 39.7068 152.344 38.9068C152.344 38.0868 152.344 37.3068 152.344 36.5668C152.364 35.8268 152.374 35.2268 152.374 34.7668C152.374 33.4068 152.214 32.3268 151.894 31.5268C151.594 30.7068 151.214 30.0668 150.754 29.6068C151.794 28.7468 152.934 28.3168 154.174 28.3168C155.294 28.3168 156.144 28.6468 156.724 29.3068C157.304 29.9468 157.694 30.8268 157.894 31.9468C158.114 33.0668 158.224 34.3168 158.224 35.6968C158.224 36.4368 158.214 37.2768 158.194 38.2168C158.194 39.1368 158.184 40.0568 158.164 40.9768C158.144 41.8768 158.114 42.6868 158.074 43.4068H159.094C159.794 42.1868 160.414 41.0268 160.954 39.9268C161.494 38.8268 161.874 37.7468 162.094 36.6868C162.094 36.0068 162.024 35.2468 161.884 34.4068C161.764 33.5668 161.604 32.7768 161.404 32.0368C161.204 31.2768 160.994 30.7168 160.774 30.3568C161.074 29.9568 161.534 29.6368 162.154 29.3968C162.774 29.1568 163.414 29.0368 164.074 29.0368C164.594 29.0368 165.094 29.1268 165.574 29.3068C166.074 29.4868 166.484 29.7768 166.804 30.1768C167.144 30.5768 167.314 31.1068 167.314 31.7668C167.314 32.3868 167.184 33.0468 166.924 33.7468C166.664 34.4268 166.374 35.2468 166.054 36.2068L165.934 43.4068H166.954C167.414 42.5268 167.904 41.5268 168.424 40.4068C168.944 39.2668 169.434 38.1068 169.894 36.9268C170.374 35.7468 170.764 34.6368 171.064 33.5968C171.364 32.5368 171.514 31.6568 171.514 30.9568C171.514 30.6768 171.484 30.4268 171.424 30.2068C171.384 29.9868 171.324 29.7868 171.244 29.6068C171.944 29.1668 172.634 28.8468 173.314 28.6468C173.994 28.4268 174.614 28.3168 175.174 28.3168C176.054 28.3168 176.684 28.5768 177.064 29.0968C177.444 29.6168 177.634 30.2968 177.634 31.1368C177.634 31.8568 177.474 32.7168 177.154 33.7168C176.854 34.7168 176.474 35.7668 176.014 36.8668C175.554 37.9468 175.094 38.9868 174.634 39.9868C174.174 40.9668 173.804 41.8068 173.524 42.5068L173.944 44.2468C173.644 44.4868 173.204 44.7668 172.624 45.0868C172.044 45.4068 171.384 45.7168 170.644 46.0168C169.924 46.3168 169.164 46.5668 168.364 46.7668C167.584 46.9668 166.834 47.0668 166.114 47.0668C165.234 47.0668 164.444 46.8668 163.744 46.4668C163.064 46.0668 162.604 45.3568 162.364 44.3368C161.484 45.1968 160.564 45.8668 159.604 46.3468C158.664 46.8268 157.594 47.0668 156.394 47.0668ZM188.309 47.0668C186.449 47.0668 184.879 46.7368 183.599 46.0768C182.319 45.4168 181.349 44.4968 180.689 43.3168C180.049 42.1168 179.729 40.7368 179.729 39.1768C179.729 37.5568 180.019 36.0868 180.599 34.7668C181.199 33.4268 182.029 32.2768 183.089 31.3168C184.149 30.3568 185.379 29.6168 186.779 29.0968C188.199 28.5768 189.729 28.3168 191.369 28.3168C193.309 28.3168 194.739 28.7468 195.659 29.6068C196.579 30.4668 197.039 31.5468 197.039 32.8468C197.039 33.9668 196.669 35.0268 195.929 36.0268C195.209 37.0068 194.039 37.8068 192.419 38.4268C190.799 39.0268 188.639 39.3368 185.939 39.3568C185.999 40.6368 186.289 41.6468 186.809 42.3868C187.349 43.1068 188.019 43.4668 188.819 43.4668C189.219 43.4668 189.639 43.3768 190.079 43.1968C190.519 42.9968 190.889 42.6568 191.189 42.1768C191.489 41.6768 191.639 40.9968 191.639 40.1368C192.999 40.1368 194.069 40.2868 194.849 40.5868C195.629 40.8868 196.019 41.4268 196.019 42.2068C196.019 42.9268 195.709 43.6668 195.089 44.4268C194.469 45.1668 193.579 45.7968 192.419 46.3168C191.279 46.8168 189.909 47.0668 188.309 47.0668ZM186.209 36.9568C187.669 36.8368 188.839 36.5668 189.719 36.1468C190.599 35.7268 191.239 35.2468 191.639 34.7068C192.039 34.1668 192.239 33.6668 192.239 33.2068C192.239 32.8068 192.119 32.4768 191.879 32.2168C191.639 31.9568 191.299 31.8268 190.859 31.8268C190.139 31.8268 189.469 32.0768 188.849 32.5768C188.229 33.0768 187.689 33.7268 187.229 34.5268C186.789 35.3068 186.449 36.1168 186.209 36.9568ZM208.026 47.0668C206.166 47.0668 204.596 46.7368 203.316 46.0768C202.036 45.4168 201.066 44.4968 200.406 43.3168C199.766 42.1168 199.446 40.7368 199.446 39.1768C199.446 37.5568 199.736 36.0868 200.316 34.7668C200.916 33.4268 201.746 32.2768 202.806 31.3168C203.866 30.3568 205.096 29.6168 206.496 29.0968C207.916 28.5768 209.446 28.3168 211.086 28.3168C213.026 28.3168 214.456 28.7468 215.376 29.6068C216.296 30.4668 216.756 31.5468 216.756 32.8468C216.756 33.9668 216.386 35.0268 215.646 36.0268C214.926 37.0068 213.756 37.8068 212.136 38.4268C210.516 39.0268 208.356 39.3368 205.656 39.3568C205.716 40.6368 206.006 41.6468 206.526 42.3868C207.066 43.1068 207.736 43.4668 208.536 43.4668C208.936 43.4668 209.356 43.3768 209.796 43.1968C210.236 42.9968 210.606 42.6568 210.906 42.1768C211.206 41.6768 211.356 40.9968 211.356 40.1368C212.716 40.1368 213.786 40.2868 214.566 40.5868C215.346 40.8868 215.736 41.4268 215.736 42.2068C215.736 42.9268 215.426 43.6668 214.806 44.4268C214.186 45.1668 213.296 45.7968 212.136 46.3168C210.996 46.8168 209.626 47.0668 208.026 47.0668ZM205.926 36.9568C207.386 36.8368 208.556 36.5668 209.436 36.1468C210.316 35.7268 210.956 35.2468 211.356 34.7068C211.756 34.1668 211.956 33.6668 211.956 33.2068C211.956 32.8068 211.836 32.4768 211.596 32.2168C211.356 31.9568 211.016 31.8268 210.576 31.8268C209.856 31.8268 209.186 32.0768 208.566 32.5768C207.946 33.0768 207.406 33.7268 206.946 34.5268C206.506 35.3068 206.166 36.1168 205.926 36.9568ZM224.623 47.0668C223.343 47.0668 222.433 46.6868 221.893 45.9268C221.353 45.1668 221.083 44.0068 221.083 42.4468C221.083 42.0068 221.133 41.3868 221.233 40.5868C221.333 39.7668 221.463 38.8568 221.623 37.8568C221.803 36.8568 221.973 35.8668 222.133 34.8868C221.713 34.9668 221.303 35.0568 220.903 35.1568C220.523 35.2568 220.163 35.3668 219.823 35.4868C219.743 35.1868 219.683 34.8868 219.643 34.5868C219.623 34.2868 219.613 34.0668 219.613 33.9268C219.613 32.8868 219.913 32.1368 220.513 31.6768C221.133 31.1968 221.873 30.9568 222.733 30.9568C222.733 30.4968 222.673 29.9868 222.553 29.4268C222.433 28.8668 222.223 28.2468 221.923 27.5668C222.763 26.9468 223.603 26.4268 224.443 26.0068C225.283 25.5868 226.213 25.3768 227.233 25.3768C228.113 25.3768 228.723 25.5468 229.063 25.8868C229.403 26.2068 229.573 26.7468 229.573 27.5068C229.573 27.8868 229.533 28.3368 229.453 28.8568C229.373 29.3768 229.273 29.9468 229.153 30.5668C229.593 30.5068 230.013 30.4368 230.413 30.3568C230.813 30.2568 231.203 30.1568 231.583 30.0568C231.663 30.2768 231.713 30.5068 231.733 30.7468C231.773 30.9668 231.793 31.1868 231.793 31.4068C231.793 32.2068 231.543 32.9068 231.043 33.5068C230.563 34.0868 229.813 34.3768 228.793 34.3768H228.343C228.063 35.6568 227.813 36.9668 227.593 38.3068C227.373 39.6468 227.263 40.8968 227.263 42.0568C227.263 42.8368 227.333 43.5368 227.473 44.1568C227.633 44.7568 227.873 45.2368 228.193 45.5968C227.073 46.5768 225.883 47.0668 224.623 47.0668ZM240.87 47.0668C238.99 47.0668 237.49 46.9168 236.37 46.6168C235.27 46.3368 234.48 45.9468 234 45.4468C233.52 44.9468 233.28 44.3968 233.28 43.7968C233.28 43.3368 233.4 42.8068 233.64 42.2068C233.9 41.6068 234.27 41.0368 234.75 40.4968C235.09 40.9568 235.54 41.3868 236.1 41.7868C236.68 42.1668 237.31 42.4768 237.99 42.7168C238.67 42.9368 239.33 43.0468 239.97 43.0468C240.67 43.0468 241.3 42.8868 241.86 42.5668C242.42 42.2268 242.79 41.6568 242.97 40.8568C239.89 40.4968 237.68 39.8168 236.34 38.8168C235 37.7968 234.33 36.3868 234.33 34.5868C234.33 33.4468 234.6 32.4768 235.14 31.6768C235.68 30.8768 236.4 30.2368 237.3 29.7568C238.22 29.2568 239.26 28.8968 240.42 28.6768C241.6 28.4368 242.82 28.3168 244.08 28.3168C245.26 28.3168 246.31 28.4768 247.23 28.7968C248.15 29.0968 248.87 29.5068 249.39 30.0268C249.91 30.5468 250.17 31.1468 250.17 31.8268C250.17 32.7868 249.82 33.5168 249.12 34.0168C248.44 34.5168 247.66 34.7668 246.78 34.7668C246.18 34.7668 245.55 34.5668 244.89 34.1668C244.23 33.7668 243.7 33.1468 243.3 32.3068C242.56 32.5268 241.97 32.8468 241.53 33.2668C241.09 33.6668 240.7 34.2468 240.36 35.0068C242.64 35.3468 244.45 35.7768 245.79 36.2968C247.13 36.8168 248.09 37.4768 248.67 38.2768C249.27 39.0568 249.57 40.0268 249.57 41.1868C249.57 42.1068 249.36 42.9068 248.94 43.5868C248.54 44.2668 248.01 44.8268 247.35 45.2668C246.69 45.7068 245.97 46.0568 245.19 46.3168C244.41 46.5968 243.64 46.7868 242.88 46.8868C242.12 47.0068 241.45 47.0668 240.87 47.0668Z" fill="white"/>
</svg>
