<svg width="97" height="128" viewBox="0 0 97 128" fill="none" xmlns="http://www.w3.org/2000/svg">
<path fill-rule="evenodd" clip-rule="evenodd" d="M75.6943 3.75287C77.7642 0.165282 82.3507 -1.0649 85.9384 1.00483C89.5262 3.0747 90.7572 7.66114 88.6874 11.249L81.9941 22.8496C84.5618 22.8598 86.9792 22.867 89.1962 22.8769C90.5534 22.6509 93.3358 23.2157 93.6074 27.2831C93.8788 31.3505 93.7205 35.531 93.6074 37.1132H89.1962V45.249C91.7975 45.7009 96.9999 47.6218 96.9999 51.6894V118.807C96.4342 121.519 93.6743 127.009 87.1601 127.28C80.6442 127.551 34.0037 127.393 11.497 127.28C7.99091 126.602 0.842631 123.62 0.29975 117.111C-0.243126 110.603 0.0735508 70.7849 0.29975 51.6894C1.09152 50.2205 3.96405 46.876 9.12104 45.249V37.1132H4.03217V27.2831C4.37159 25.9272 5.86429 23.1483 9.12104 22.8769C11.5082 22.6782 39.7973 22.7104 64.7128 22.7861L75.6943 3.75287Z" fill="white"/>
<path d="M24.4891 119.425C20.0224 119.425 16.8557 118.159 14.9891 115.625C13.1891 113.025 12.2891 109.125 12.2891 103.925C12.2891 100.592 12.8224 95.5919 13.8891 88.9252C15.0224 82.1919 16.5891 73.2919 18.5891 62.2252L13.2891 51.5252C16.4224 49.5252 19.7557 47.8252 23.2891 46.4252C26.8224 44.9585 30.3557 44.2252 33.8891 44.2252C37.0224 44.2252 39.0891 45.1585 40.0891 47.0252C41.0891 48.8919 41.5891 51.0919 41.5891 53.6252C41.5891 54.7585 41.3557 56.6252 40.8891 59.2252C40.4891 61.7585 39.9557 64.6919 39.2891 68.0252C38.6891 71.3585 38.0557 74.7585 37.3891 78.2252H59.7891C60.1891 75.8919 60.6224 73.3919 61.0891 70.7252C61.6224 68.0585 62.1557 65.2252 62.6891 62.2252L57.3891 51.5252C60.5224 49.5252 63.8557 47.8252 67.3891 46.4252C70.9224 44.9585 74.4557 44.2252 77.9891 44.2252C81.1224 44.2252 83.1891 45.1585 84.1891 47.0252C85.1891 48.8919 85.6891 51.0919 85.6891 53.6252C85.6891 54.6919 85.4891 56.4252 85.0891 58.8252C84.7557 61.1585 84.2891 63.8919 83.6891 67.0252C83.0891 70.0919 82.4557 73.3252 81.7891 76.7252C81.1891 80.0585 80.5891 83.3252 79.9891 86.5252C79.3891 89.6585 78.8891 92.4585 78.4891 94.9252C78.1557 97.3252 77.9891 99.1585 77.9891 100.425C77.9891 103.825 78.2224 106.692 78.6891 109.025C79.2224 111.359 79.9891 113.325 80.9891 114.925C76.9891 117.925 72.8557 119.425 68.5891 119.425C64.1224 119.425 60.9557 118.159 59.0891 115.625C57.2891 113.025 56.3891 109.125 56.3891 103.925C56.3891 102.392 56.4891 100.492 56.6891 98.2252C56.9557 95.8919 57.3224 93.1919 57.7891 90.1252H35.1891C34.7891 92.3919 34.4557 94.4585 34.1891 96.3252C33.9891 98.1252 33.8891 99.4919 33.8891 100.425C33.8891 103.825 34.1224 106.692 34.5891 109.025C35.1224 111.359 35.8891 113.325 36.8891 114.925C32.8891 117.925 28.7557 119.425 24.4891 119.425Z" fill="#281A00"/>
</svg>
