<svg width="47" height="44" viewBox="0 0 47 44" fill="none" xmlns="http://www.w3.org/2000/svg">
<g clip-path="url(#clip0_2360_54)">
<path d="M38.039 32.0935L37.1543 36.5057C37.074 36.9156 36.8995 37.3024 36.6419 37.6411C36.3843 37.9799 36.0493 38.2631 35.6585 38.4728C35.2676 38.6824 34.8294 38.8139 34.3719 38.8586C33.9145 38.9034 33.4479 38.8605 33.002 38.7328C28.0721 37.2327 23.552 34.7177 19.8048 31.3898C16.3092 28.34 13.5658 24.656 11.7694 20.5994C9.77704 16.2088 8.9343 11.4958 9.30946 6.84228C9.35018 6.42739 9.48607 6.02826 9.7085 5.6703C9.93093 5.31234 10.235 5.00339 10.6014 4.76313C10.9678 4.52287 11.3884 4.35656 11.8366 4.27479C12.2847 4.19302 12.7505 4.19758 13.2043 4.28818L18.1067 5.27121C18.9012 5.4232 19.6193 5.83012 20.1273 6.41611C20.6353 7.0021 20.8985 7.72718 20.8677 8.4562C20.7915 9.90969 20.8973 11.373 21.1829 12.8183C21.2973 13.3888 21.2301 13.9704 20.9895 14.4943C20.7489 15.0182 20.3449 15.4623 19.8253 15.7741L17.3754 17.2258C18.9634 21.3742 21.7395 25.1021 25.4108 28.0162L27.8607 26.5645C28.3843 26.2582 28.9999 26.0981 29.6345 26.1034C30.2691 26.1086 30.8962 26.2789 31.4414 26.5941C32.8242 27.3893 34.2954 28.0435 35.8269 28.5443C36.6005 28.8043 37.2533 29.3095 37.6612 29.9639C38.0691 30.6183 38.2035 31.3762 38.039 32.0935Z" stroke="white" stroke-width="3" stroke-linecap="round" stroke-linejoin="round"/>
</g>
<defs>
<clipPath id="clip0_2360_54">
<rect width="40" height="36" fill="white" transform="translate(7.0778) rotate(11.3385)"/>
</clipPath>
</defs>
</svg>
