<svg width="37" height="37" viewBox="0 0 37 37" fill="none" xmlns="http://www.w3.org/2000/svg">
<g clip-path="url(#clip0_2317_148)">
<path d="M1.5415 1.54169H7.70817L11.8398 22.1846C11.9808 22.8944 12.3669 23.532 12.9306 23.9857C13.4943 24.4395 14.1997 24.6806 14.9232 24.6667H29.9082C30.6317 24.6806 31.337 24.4395 31.9007 23.9857C32.4644 23.532 32.8505 22.8944 32.9915 22.1846L35.4582 9.25002H9.24984M15.4165 32.375C15.4165 33.2265 14.7263 33.9167 13.8748 33.9167C13.0234 33.9167 12.3332 33.2265 12.3332 32.375C12.3332 31.5236 13.0234 30.8334 13.8748 30.8334C14.7263 30.8334 15.4165 31.5236 15.4165 32.375ZM32.3748 32.375C32.3748 33.2265 31.6846 33.9167 30.8332 33.9167C29.9817 33.9167 29.2915 33.2265 29.2915 32.375C29.2915 31.5236 29.9817 30.8334 30.8332 30.8334C31.6846 30.8334 32.3748 31.5236 32.3748 32.375Z" stroke="white" stroke-width="4" stroke-linecap="round" stroke-linejoin="round"/>
</g>
<defs>
<clipPath id="clip0_2317_148">
<rect width="37" height="37" fill="white"/>
</clipPath>
</defs>
</svg>
